<svg width="16" height="16" viewBox="0 0 16 16" fill="none" xmlns="http://www.w3.org/2000/svg">
<path d="M7.40188 0.662398C7.60358 0.101787 8.39642 0.101787 8.59812 0.662397C8.76786 1.13414 9.39139 1.2329 9.6986 0.836694C10.0637 0.365853 10.8177 0.610853 10.8363 1.20636C10.8519 1.70746 11.4144 1.99407 11.829 1.71219C12.3217 1.3772 12.9632 1.84322 12.7968 2.41532C12.6569 2.89674 13.1033 3.34314 13.5847 3.20317C14.1568 3.03684 14.6228 3.67826 14.2878 4.17096C14.0059 4.58556 14.2925 5.14806 14.7936 5.16371C15.3891 5.1823 15.6341 5.93633 15.1633 6.3014C14.7671 6.60861 14.8659 7.23214 15.3376 7.40188C15.8982 7.60358 15.8982 8.39642 15.3376 8.59812C14.8659 8.76786 14.7671 9.39139 15.1633 9.6986C15.6341 10.0637 15.3891 10.8177 14.7936 10.8363C14.2925 10.8519 14.0059 11.4144 14.2878 11.829C14.6228 12.3217 14.1568 12.9632 13.5847 12.7968C13.1033 12.6569 12.6569 13.1033 12.7968 13.5847C12.9632 14.1568 12.3217 14.6228 11.829 14.2878C11.4144 14.0059 10.8519 14.2925 10.8363 14.7936C10.8177 15.3891 10.0637 15.6341 9.6986 15.1633C9.39139 14.7671 8.76786 14.8659 8.59812 15.3376C8.39642 15.8982 7.60358 15.8982 7.40188 15.3376C7.23214 14.8659 6.60861 14.7671 6.3014 15.1633C5.93633 15.6341 5.1823 15.3891 5.16371 14.7936C5.14806 14.2925 4.58556 14.0059 4.17096 14.2878C3.67826 14.6228 3.03684 14.1568 3.20317 13.5847C3.34314 13.1033 2.89674 12.6569 2.41532 12.7968C1.84322 12.9632 1.3772 12.3217 1.71219 11.829C1.99407 11.4144 1.70746 10.8519 1.20636 10.8363C0.610853 10.8177 0.365853 10.0637 0.836694 9.6986C1.2329 9.39139 1.13414 8.76786 0.662397 8.59812C0.101787 8.39642 0.101787 7.60358 0.662398 7.40188C1.13414 7.23214 1.2329 6.60861 0.836695 6.3014C0.365853 5.93633 0.610853 5.1823 1.20636 5.16371C1.70746 5.14806 1.99407 4.58556 1.71219 4.17096C1.3772 3.67826 1.84322 3.03684 2.41532 3.20317C2.89674 3.34314 3.34314 2.89674 3.20317 2.41532C3.03684 1.84322 3.67826 1.3772 4.17096 1.71219C4.58556 1.99407 5.14806 1.70746 5.16371 1.20636C5.1823 0.610853 5.93633 0.365853 6.3014 0.836695C6.60861 1.2329 7.23214 1.13414 7.40188 0.662398Z" fill="#46D3BA"/>
</svg>
